<svg xmlns="http://www.w3.org/2000/svg" viewBox="0 0 220 90" width="220" height="90">
  <!-- Outer circle ring -->
  <circle cx="45" cy="45" r="42" fill="none" stroke="#6d28d9" stroke-width="1.8" opacity="0.7"/>

  <!-- Head/face silhouette — woman facing right, deep purple -->
  <path d="
    M45,7
    C56,7 64,12 68,20
    C72,28 71,36 68,42
    C72,46 73,52 71,58
    C69,63 64,66 59,67
    L59,72
    C59,74 57,76 55,76
    L35,76
    C33,76 31,74 31,72
    L31,67
    C26,66 21,63 19,58
    C17,52 18,46 22,42
    C19,36 18,28 22,20
    C26,12 34,7 45,7 Z
  " fill="#3b1d8a" opacity="0.88"/>

  <!-- Spine vertebrae (white segments, centered) -->
  <rect x="41.5" y="11" width="7" height="4.5" rx="1.5" fill="white" opacity="0.9"/>
  <rect x="41.5" y="18" width="7" height="4.5" rx="1.5" fill="white" opacity="0.9"/>
  <rect x="41.5" y="25" width="7" height="4.5" rx="1.5" fill="white" opacity="0.9"/>
  <rect x="41.5" y="32" width="7" height="4.5" rx="1.5" fill="white" opacity="0.9"/>
  <rect x="41.5" y="39" width="7" height="4.5" rx="1.5" fill="white" opacity="0.9"/>
  <rect x="41.5" y="46" width="7" height="4.5" rx="1.5" fill="white" opacity="0.9"/>
  <rect x="41.5" y="53" width="7" height="4.5" rx="1.5" fill="white" opacity="0.9"/>

  <!-- Neural network nodes (brain — left side of head) -->
  <circle cx="26" cy="20" r="2.8" fill="#c4b5fd"/>
  <circle cx="35" cy="14" r="2.8" fill="#a78bfa"/>
  <circle cx="20" cy="30" r="2.8" fill="#c4b5fd"/>
  <circle cx="30" cy="28" r="2.8" fill="#a78bfa"/>
  <circle cx="23" cy="40" r="2.8" fill="#c4b5fd"/>
  <circle cx="33" cy="36" r="2.8" fill="#a78bfa"/>

  <!-- Neural network connections -->
  <line x1="26" y1="20" x2="35" y2="14" stroke="#c4b5fd" stroke-width="1.1" opacity="0.8"/>
  <line x1="26" y1="20" x2="20" y2="30" stroke="#c4b5fd" stroke-width="1.1" opacity="0.8"/>
  <line x1="26" y1="20" x2="30" y2="28" stroke="#c4b5fd" stroke-width="1.1" opacity="0.8"/>
  <line x1="35" y1="14" x2="30" y2="28" stroke="#c4b5fd" stroke-width="1.1" opacity="0.8"/>
  <line x1="20" y1="30" x2="30" y2="28" stroke="#c4b5fd" stroke-width="1.1" opacity="0.8"/>
  <line x1="20" y1="30" x2="23" y2="40" stroke="#c4b5fd" stroke-width="1.1" opacity="0.8"/>
  <line x1="30" y1="28" x2="33" y2="36" stroke="#c4b5fd" stroke-width="1.1" opacity="0.8"/>
  <line x1="23" y1="40" x2="33" y2="36" stroke="#c4b5fd" stroke-width="1.1" opacity="0.8"/>

  <!-- "PhysioMind" text -->
  <text x="96" y="50"
    font-family="'Segoe UI',Arial,sans-serif"
    font-size="30"
    font-weight="900"
    letter-spacing="-0.8"
    fill="#1e1b4b">Physio<tspan fill="#7c3aed">Mind</tspan></text>
  <text x="97" y="64"
    font-family="'Segoe UI',Arial,sans-serif"
    font-size="10"
    font-weight="600"
    letter-spacing="1.8"
    fill="#94a3b8"
    text-transform="uppercase">CLINICAL PLATFORM</text>
</svg>
